/* XPM */
static char *top_right_active[] = {
/* columns rows colors chars-per-pixel */
"8 42 5 1 ",
"  c None",
". c #35924E",
"X c #35934E",
"o c #36924E",
"O c #36934E",
/* pixels */
"...O    ",
".....X  ",
"....... ",
"....... ",
"........",
".......o",
"........",
"........",
"........",
"........",
"........",
"........",
"........",
"........",
"........",
"........",
"........",
"........",
"........",
"........",
"........",
"........",
"........",
"........",
"........",
"........",
"........",
"........",
"........",
"........",
"........",
"........",
"........",
"........",
"........",
"........",
"........",
"........",
"........",
"........",
"........",
"........"
};
