/* XPM */
static char *top_left_inactive[] = {
/* columns rows colors chars-per-pixel */
"4 38 2 1 ",
"  c #8EC09C",
". c None",
/* pixels */
"....",
"..  ",
".   ",
".   ",
"    ",
"    ",
"    ",
"    ",
"    ",
"    ",
"    ",
"    ",
"    ",
"    ",
"    ",
"    ",
"    ",
"    ",
"    ",
"    ",
"    ",
"    ",
"    ",
"    ",
"    ",
"    ",
"    ",
"    ",
"    ",
"    ",
"    ",
"    ",
"    ",
"    ",
"    ",
"    ",
"    ",
"    "
};
