/* XPM */
static char *top_right_active[] = {
/* columns rows colors chars-per-pixel */
"4 38 4 1 ",
"  c #35924E",
". c #35934E",
"X c #36924E",
"o c None",
/* pixels */
"oooo",
" .oo",
"   o",
"   o",
"    ",
"   X",
"    ",
"    ",
"    ",
"    ",
"    ",
"    ",
"    ",
"    ",
"    ",
"    ",
"    ",
"    ",
"    ",
"    ",
"    ",
"    ",
"    ",
"    ",
"    ",
"    ",
"    ",
"    ",
"    ",
"    ",
"    ",
"    ",
"    ",
"    ",
"    ",
"    ",
"    ",
"    "
};
