/* XPM */
static char *close_prelight[] = {
/* columns rows colors chars-per-pixel */
"30 30 20 1 ",
"  c #0D2413",
". c #3D5042",
"X c #7B887E",
"o c #7E8C83",
"O c #7F8D83",
"+ c #C6CEC8",
"@ c #C8D0CA",
"# c #C9D1CB",
"$ c #CAD2CC",
"% c #CBD2CD",
"& c #CDD3CF",
"* c #CED4CF",
"= c #D0D7D2",
"- c #D2D9D4",
"; c #D3D9D5",
": c #D3DAD5",
"> c #D6DDD8",
", c #D8DFDA",
"< c #DCE2DE",
"1 c #DDE3DF",
/* pixels */
"1111111111,-&$@@$&-,1111111111",
"1111111<;$@@@@@@@@@@$:<1111111",
"111111>%@@@@@@@@@@@@@@%>111111",
"11111;@@@@@@@@@@@@@@@@@@;11111",
"1111=@@@@@@@@@@@@@@@@@@@@=1111",
"111;@@@@@@@@@@@@@@@@@@@@@@;111",
"11>@@@@@@@@@@@@@@@@@@@@@@@@>11",
"1<%@@@@@@@@@@@@@@@@@@@@@@@@%<1",
"1;@@@@@@@@@@@@@@@@@@@@@@@@@@:1",
"1$@@@@@@@@@@@@@@@@@@@@@@@@@@$1",
",@@@@@@@@@@+@@@@@@+@@@@@@@@@@,",
"-@@@@@@@@@+.o@@@@o.+@@@@@@@@@-",
"&@@@@@@@@@@O X@@O X@@@@@@@@@@*",
"$@@@@@@@@@@@O XO X@@@@@@@@@@@$",
"#@@@@@@@@@@@@o  o@@@@@@@@@@@@#",
"#@@@@@@@@@@@@o  o@@@@@@@@@@@@#",
"$@@@@@@@@@@@O XO X@@@@@@@@@@@$",
"&@@@@@@@@@@O X@@O X@@@@@@@@@@*",
"-@@@@@@@@@+.o@@@@o.+@@@@@@@@@;",
",@@@@@@@@@@+@@@@@@+@@@@@@@@@@,",
"1$@@@@@@@@@@@@@@@@@@@@@@@@@@$1",
"1:@@@@@@@@@@@@@@@@@@@@@@@@@@:1",
"1<%@@@@@@@@@@@@@@@@@@@@@@@@%<1",
"11>@@@@@@@@@@@@@@@@@@@@@@@@>11",
"111;@@@@@@@@@@@@@@@@@@@@@@;111",
"1111=@@@@@@@@@@@@@@@@@@@@=1111",
"11111;@@@@@@@@@@@@@@@@@@;11111",
"111111>%@@@@@@@@@@@@@@%>111111",
"1111111<:$@@@@@@@@@@$:<1111111",
"1111111111,-*$##$*;,1111111111"
};
