/* XPM */
static char *close_prelight[] = {
/* columns rows colors chars-per-pixel */
"34 34 16 1 ",
"  c #174424",
". c #41674C",
"X c #789480",
"o c #7C9783",
"O c #7C9884",
"+ c #BCCBBF",
"@ c #BDCCC1",
"# c #BECCC2",
"$ c #C1CFC4",
"% c #C2D0C5",
"& c #C7D5CB",
"* c #C8D4CC",
"= c #C8D5CC",
"- c #CDD9D1",
"; c #CEDAD2",
": c #CFDBD3",
/* pixels */
"::;&$#@@@@@@@@@@@@@@@@@@@@@@#$&;::",
":-$@@@@@@@@@@@@@@@@@@@@@@@@@@@@$-:",
";$@@@@@@@@@@@@@@@@@@@@@@@@@@@@@@$;",
"&@@@@@@@@@@@@@@@@@@@@@@@@@@@@@@@@=",
"$@@@@@@@@@@@@@@@@@@@@@@@@@@@@@@@@$",
"#@@@@@@@@@@@@@@@@@@@@@@@@@@@@@@@@#",
"@@@@@@@@@@@@@@@@@@@@@@@@@@@@@@@@@@",
"@@@@@@@@@@@@@@@@@@@@@@@@@@@@@@@@@@",
"@@@@@@@@@@@@@@@@@@@@@@@@@@@@@@@@@@",
"@@@@@@@@@@@@@@@@@@@@@@@@@@@@@@@@@@",
"@@@@@@@@@@@@@@@@@@@@@@@@@@@@@@@@@@",
"@@@@@@@@@@@@@@@@@@@@@@@@@@@@@@@@@@",
"@@@@@@@@@@@@@+@@@@@@+@@@@@@@@@@@@@",
"@@@@@@@@@@@@+.o@@@@o.+@@@@@@@@@@@@",
"@@@@@@@@@@@@@O X@@O X@@@@@@@@@@@@@",
"@@@@@@@@@@@@@@O XO X@@@@@@@@@@@@@@",
"@@@@@@@@@@@@@@@o  o@@@@@@@@@@@@@@@",
"@@@@@@@@@@@@@@@o  o@@@@@@@@@@@@@@@",
"@@@@@@@@@@@@@@O XO X@@@@@@@@@@@@@@",
"@@@@@@@@@@@@@O X@@O X@@@@@@@@@@@@@",
"@@@@@@@@@@@@+.o@@@@o.+@@@@@@@@@@@@",
"@@@@@@@@@@@@@+@@@@@@+@@@@@@@@@@@@@",
"@@@@@@@@@@@@@@@@@@@@@@@@@@@@@@@@@@",
"@@@@@@@@@@@@@@@@@@@@@@@@@@@@@@@@@@",
"@@@@@@@@@@@@@@@@@@@@@@@@@@@@@@@@@@",
"@@@@@@@@@@@@@@@@@@@@@@@@@@@@@@@@@@",
"@@@@@@@@@@@@@@@@@@@@@@@@@@@@@@@@@@",
"@@@@@@@@@@@@@@@@@@@@@@@@@@@@@@@@@@",
"#@@@@@@@@@@@@@@@@@@@@@@@@@@@@@@@@#",
"$@@@@@@@@@@@@@@@@@@@@@@@@@@@@@@@@%",
"&@@@@@@@@@@@@@@@@@@@@@@@@@@@@@@@@*",
";$@@@@@@@@@@@@@@@@@@@@@@@@@@@@@@$;",
":-$@@@@@@@@@@@@@@@@@@@@@@@@@@@@$-:",
"::;=%#@@@@@@@@@@@@@@@@@@@@@@#%*;::"
};
