/* XPM */
static char *close_pressed[] = {
/* columns rows colors chars-per-pixel */
"30 30 28 1 ",
"  c #0D2413",
". c #3B4E3F",
"X c #3A4D40",
"o c #758279",
"O c #78867D",
"+ c #79877E",
"@ c #BDC4BF",
"# c #BEC6C1",
"$ c #BFC7C2",
"% c #C1C9C3",
"& c #C2C9C4",
"* c #C2CAC4",
"= c #C2CAC5",
"- c #C5CCC7",
"; c #C6CDC8",
": c #C8D0CB",
"> c #C9D1CC",
", c #CCD3CF",
"< c #CED4CF",
"1 c #CDD4D0",
"2 c #CED5D0",
"3 c #CFD6D1",
"4 c #D4DAD6",
"5 c #D4DBD6",
"6 c #D5DCD8",
"7 c #D6DDD9",
"8 c #DCE2DE",
"9 c #DDE3DF",
/* pixels */
"99999999996,-%$$%-,69999999999",
"999999982%##########%389999999",
"9999994&##############&4999999",
"999992##################199999",
"9999:####################>9999",
"9991######################2999",
"994########################499",
"98&########################=89",
"92##########################39",
"9%##########################*9",
"6##########@######@##########6",
",#########@XO####OX@#########,",
"-##########+ o##+ o##########;",
"%###########+ o+ o###########%",
"$############O  O############$",
"$############O  O############$",
"%###########+ o+ o###########%",
"-##########+ o##+ o##########;",
",#########@.O####OX@#########1",
"6##########@######@##########7",
"9%##########################*9",
"93##########################39",
"98=########################=89",
"994########################599",
"9992######################<999",
"9999>####################>9999",
"999992##################199999",
"9999994=##############=5999999",
"999999983*##########*389999999",
"99999999996,;%$$%;169999999999"
};
