/* XPM */
static char *hide_pressed[] = {
/* columns rows colors chars-per-pixel */
"30 30 22 1 ",
"  c #0B2211",
". c #BEC6C1",
"X c #BFC7C2",
"o c #C1C9C3",
"O c #C2C9C4",
"+ c #C2CAC4",
"@ c #C2CAC5",
"# c #C5CCC7",
"$ c #C6CDC8",
"% c #C8D0CB",
"& c #C9D1CC",
"* c #CCD3CF",
"= c #CED4CF",
"- c #CDD4D0",
"; c #CED5D0",
": c #CFD6D1",
"> c #D4DAD6",
", c #D4DBD6",
"< c #D5DCD8",
"1 c #D6DDD9",
"2 c #DCE2DE",
"3 c #DDE3DF",
/* pixels */
"3333333333<*#oXXo#*<3333333333",
"33333332;o..........o:23333333",
"333333>O..............O>333333",
"33333;..................-33333",
"3333%....................&3333",
"333-......................;333",
"33>........................>33",
"32O........................@23",
"3;..........................:3",
"3o..........................+3",
"<............................<",
"*............................*",
"#............................$",
"o............................o",
"X............................X",
"X............................X",
"o............................o",
"#..........        ..........$",
"*............................-",
"<............................1",
"3o..........................+3",
"3:..........................:3",
"32@........................@23",
"33>........................,33",
"333;......................=333",
"3333&....................&3333",
"33333;..................-33333",
"333333>@..............@,333333",
"33333332:+..........+:23333333",
"3333333333<*$oXXo$-<3333333333"
};
