/* XPM */
static char *top_right_active[] = {
/* columns rows colors chars-per-pixel */
"4 38 5 1 ",
"  c #DCE3DF",
". c #DDE3DF",
"X c #DEE3DF",
"o c #DDE3E0",
"O c None",
/* pixels */
"OOOO",
"..OO",
"..XO",
"...O",
"... ",
"...o",
"....",
"....",
"....",
"....",
"....",
"....",
"....",
"....",
"....",
"....",
"....",
"....",
"....",
"....",
"....",
"....",
"....",
"....",
"....",
"....",
"....",
"....",
"....",
"....",
"....",
"....",
"....",
"....",
"....",
"....",
"....",
"...."
};
