/* XPM */
static char *bottom_left_inactive[] = {
/* columns rows colors chars-per-pixel */
"24 24 2 1 ",
"  c #202220",
". c None",
/* pixels */
"   .....................",
"   .....................",
"   .....................",
"   .....................",
"   .....................",
"   .....................",
"   .....................",
"   .....................",
"   .....................",
"   .....................",
"   .....................",
"   .....................",
"   .....................",
"   .....................",
"   .....................",
"   .....................",
"   .....................",
"   .....................",
"   .....................",
"   .....................",
"   .....................",
"                        ",
"                        ",
"                        "
};
