/* XPM */
static char *close_prelight[] = {
/* columns rows colors chars-per-pixel */
"34 34 19 1 ",
"  c #363C38",
". c #363D39",
"X c #373D39",
"o c #3D433F",
"O c #3D443F",
"+ c #424945",
"@ c #434945",
"# c #424A45",
"$ c #434946",
"% c #434A46",
"& c #454C48",
"* c #464D49",
"= c #474E4A",
"- c #7E8A82",
"; c #7E8B83",
": c #828F86",
"> c #B1C3B6",
", c #B1C4B5",
"< c #D5ECDB",
/* pixels */
"  Xo+&**********************&+o.  ",
" X%****************************%X ",
"X%******************************%.",
"o********************************O",
"@********************************+",
"&********************************&",
"**********************************",
"**********************************",
"**********************************",
"**********************************",
"**********************************",
"**********************************",
"*************=******=*************",
"************=>;****;>=************",
"*************-<:**-<:*************",
"**************-<:-<:**************",
"***************;<<;***************",
"***************;<<;***************",
"**************-<:-<:**************",
"*************-<:**-<:*************",
"************=,;****;>=************",
"*************=******=*************",
"**********************************",
"**********************************",
"**********************************",
"**********************************",
"**********************************",
"**********************************",
"&********************************&",
"+********************************#",
"o********************************O",
"X%******************************$.",
" X%****************************$X ",
"  .O#&**********************&#O.  "
};
