/* XPM */
static char *close_pressed[] = {
/* columns rows colors chars-per-pixel */
"34 34 17 1 ",
"  c #363C38",
". c #373D39",
"X c #383F3A",
"o c #404742",
"O c #414742",
"+ c #414842",
"@ c #49514B",
"# c #49524C",
"$ c #4C564F",
"% c #4D5650",
"& c #4E5751",
"* c #4F5852",
"= c #839187",
"- c #839188",
"; c #87958B",
": c #B3C6B8",
"> c #D5ECDB",
/* pixels */
"  .O@%&&&&&&&&&&&&&&&&&&&&&&%@O.  ",
" X#&&&&&&&&&&&&&&&&&&&&&&&&&&&&#X ",
".#&&&&&&&&&&&&&&&&&&&&&&&&&&&&&&#.",
"+&&&&&&&&&&&&&&&&&&&&&&&&&&&&&&&&o",
"@&&&&&&&&&&&&&&&&&&&&&&&&&&&&&&&&@",
"$&&&&&&&&&&&&&&&&&&&&&&&&&&&&&&&&$",
"&&&&&&&&&&&&&&&&&&&&&&&&&&&&&&&&&&",
"&&&&&&&&&&&&&&&&&&&&&&&&&&&&&&&&&&",
"&&&&&&&&&&&&&&&&&&&&&&&&&&&&&&&&&&",
"&&&&&&&&&&&&&&&&&&&&&&&&&&&&&&&&&&",
"&&&&&&&&&&&&&&&&&&&&&&&&&&&&&&&&&&",
"&&&&&&&&&&&&&&&&&&&&&&&&&&&&&&&&&&",
"&&&&&&&&&&&&&*&&&&&&*&&&&&&&&&&&&&",
"&&&&&&&&&&&&*:-&&&&-:*&&&&&&&&&&&&",
"&&&&&&&&&&&&&=>;&&=>;&&&&&&&&&&&&&",
"&&&&&&&&&&&&&&=>;=>;&&&&&&&&&&&&&&",
"&&&&&&&&&&&&&&&->>-&&&&&&&&&&&&&&&",
"&&&&&&&&&&&&&&&->>-&&&&&&&&&&&&&&&",
"&&&&&&&&&&&&&&=>;=>;&&&&&&&&&&&&&&",
"&&&&&&&&&&&&&=>;&&=>;&&&&&&&&&&&&&",
"&&&&&&&&&&&&*:-&&&&-:*&&&&&&&&&&&&",
"&&&&&&&&&&&&&*&&&&&&*&&&&&&&&&&&&&",
"&&&&&&&&&&&&&&&&&&&&&&&&&&&&&&&&&&",
"&&&&&&&&&&&&&&&&&&&&&&&&&&&&&&&&&&",
"&&&&&&&&&&&&&&&&&&&&&&&&&&&&&&&&&&",
"&&&&&&&&&&&&&&&&&&&&&&&&&&&&&&&&&&",
"&&&&&&&&&&&&&&&&&&&&&&&&&&&&&&&&&&",
"&&&&&&&&&&&&&&&&&&&&&&&&&&&&&&&&&&",
"$&&&&&&&&&&&&&&&&&&&&&&&&&&&&&&&&$",
"@&&&&&&&&&&&&&&&&&&&&&&&&&&&&&&&&@",
"O&&&&&&&&&&&&&&&&&&&&&&&&&&&&&&&&o",
".#&&&&&&&&&&&&&&&&&&&&&&&&&&&&&&#.",
" X#&&&&&&&&&&&&&&&&&&&&&&&&&&&&#X ",
"  .o@$&&&&&&&&&&&&&&&&&&&&&&$@o.  "
};
