/* XPM */
static char *hide_pressed[] = {
/* columns rows colors chars-per-pixel */
"30 30 28 1 ",
"  c #202220",
". c #212321",
"X c #272927",
"o c #272A27",
"O c #272A28",
"+ c #282A28",
"@ c #292C29",
"# c #292C2A",
"$ c #2A2C2A",
"% c #2E302E",
"& c #2E312E",
"* c #2E312F",
"= c #2F322F",
"- c #2F3130",
"; c #303230",
": c #303330",
"> c #303331",
", c #333734",
"< c #343734",
"1 c #373A38",
"2 c #373B38",
"3 c #3B3E3B",
"4 c #3B3E3C",
"5 c #3B3F3C",
"6 c #3C3F3D",
"7 c #3D413E",
"8 c #3E423F",
"9 c #EBF6EE",
/* pixels */
"          O>267762>o          ",
"       .*688888888886&.       ",
"      #4888888888888884@      ",
"     *888888888888888888:     ",
"    <88888888888888888888<    ",
"   =8888888888888888888888;   ",
"  #888888888888888888888888@  ",
" .48888888888888888888888885. ",
" *88888888888888888888888888& ",
" 6888888888888888888888888886 ",
"+8888888888888888888888888888o",
">8888888888888888888888888888:",
"288888888888888888888888888881",
"688888888888888888888888888886",
"788888888888888888888888888887",
"788888888888888888888888888887",
"688888888888888888888888888886",
"288888888889999999988888888881",
">8888888888888888888888888888:",
"o8888888888888888888888888888X",
" 6888888888888888888888888886 ",
" *88888888888888888888888888% ",
" .58888888888888888888888883. ",
"  @888888888888888888888888$  ",
"   ;8888888888888888888888-   ",
"    <88888888888888888888,    ",
"     *888888888888888888:     ",
"      @5888888888888883$      ",
"       .&688888888886&.       ",
"          o:267761:X          "
};
