/* XPM */
static char *maximize_prelight[] = {
/* columns rows colors chars-per-pixel */
"30 30 22 1 ",
"  c #202220",
". c #212321",
"X c #242624",
"o c #242724",
"O c #252725",
"+ c #262826",
"@ c #262926",
"# c #292B29",
"$ c #292C29",
"% c #2A2C2A",
"& c #2A2D2A",
"* c #2B2D2B",
"= c #2D2F2D",
"- c #2D302D",
"; c #2F322F",
": c #303130",
"> c #303230",
", c #313431",
"< c #323532",
"1 c #333633",
"2 c #343734",
"3 c #EBF6EE",
/* pixels */
"          O*;<22<;*o          ",
"       .#<2222222222<$.       ",
"      @,22222222222222,@      ",
"     #222222222222222222&     ",
"    -22222222222222222222=    ",
"   %2222222222222222222222%   ",
"  @222222222222222222222222@  ",
" .,222222222222222222222222,. ",
" #22222222222222222222222222$ ",
" <22222222222222222222222222< ",
"O2222222222222222222222222222o",
"*2222222222333333332222222222&",
";2222222222322222232222222222:",
"<2222222222322222232222222222<",
"122222222223222222322222222221",
"122222222223222222322222222221",
"<2222222222322222232222222222<",
";2222222222322222232222222222:",
"*2222222222333333332222222222&",
"o2222222222222222222222222222X",
" <22222222222222222222222222< ",
" %22222222222222222222222222$ ",
" .,222222222222222222222222,. ",
"  @222222222222222222222222+  ",
"   %2222222222222222222222$   ",
"    =22222222222222222222=    ",
"     #222222222222222222&     ",
"      @,22222222222222,+      ",
"       .$<2222222222<$.       ",
"          o&><11<:&X          "
};
