/* XPM */
static char *top_left_active[] = {
/* columns rows colors chars-per-pixel */
"4 38 3 1 ",
"  c #1F221F",
". c #202220",
"X c None",
/* pixels */
"XXXX",
"XX..",
"X...",
"X...",
"....",
" ...",
"....",
"....",
"....",
"....",
"....",
"....",
"....",
"....",
"....",
"....",
"....",
"....",
"....",
"....",
"....",
"....",
"....",
"....",
"....",
"....",
"....",
"....",
"....",
"....",
"....",
"....",
"....",
"....",
"....",
"....",
"....",
"...."
};
