/* XPM */
static char *top_right_inactive[] = {
/* columns rows colors chars-per-pixel */
"4 38 4 1 ",
"  c #272B27",
". c #282B28",
"X c #282C28",
"o c None",
/* pixels */
"oooo",
". oo",
"...o",
"...o",
"...X",
"....",
"....",
"....",
"....",
"....",
"....",
"....",
"....",
"....",
"....",
"....",
"....",
"....",
"....",
"....",
"....",
"....",
"....",
"....",
"....",
"....",
"....",
"....",
"....",
"....",
"....",
"....",
"....",
"....",
"....",
"....",
"....",
"...."
};
